<svg width="248" height="80" viewBox="0 0 248 80" fill="none" xmlns="http://www.w3.org/2000/svg">
<path opacity="0.07" d="M46.0526 -0.00695801H3.94737C1.71053 -0.00695801 0 1.70347 0 3.94019V27.6231C0 29.8598 1.84211 31.5702 3.94737 31.5702H46.0526C48.2895 31.5702 50 29.8598 50 27.6231V3.94019C50 1.70347 48.1579 -0.00695801 46.0526 -0.00695801Z" fill="black"/>
<path d="M46.0532 1.30872C47.5006 1.30872 48.6848 2.49286 48.6848 3.94015V27.623C48.6848 29.0703 47.5006 30.2545 46.0532 30.2545H3.94799C2.50062 30.2545 1.31641 29.0703 1.31641 27.623V3.94015C1.31641 2.49286 2.50062 1.30872 3.94799 1.30872H46.0532" fill="white"/>
<path fill-rule="evenodd" clip-rule="evenodd" d="M23.8063 15.75V19.9603H22.4668V9.56614H26.0076C26.8645 9.55163 27.6918 9.87931 28.3063 10.4766C28.8883 11.0197 29.2306 11.7719 29.2578 12.5676C29.2849 13.3632 28.9947 14.1369 28.451 14.7185L28.3063 14.8711C27.6878 15.4592 26.8615 15.7789 26.0076 15.7579L23.8063 15.75ZM23.8063 10.8397V14.508H26.0405C26.5365 14.5238 27.0155 14.3303 27.3628 13.9764C27.8708 13.447 28.0135 12.6655 27.7254 11.9908C27.4373 11.3161 26.7742 10.8786 26.0405 10.8792L23.8063 10.8397ZM34.6773 13.4199C34.03 12.8607 33.1931 12.5739 32.3378 12.6133C31.2037 12.5486 30.117 13.0765 29.4668 14.008L30.6444 14.7501C31.021 14.1568 31.6773 13.8001 32.38 13.8067C32.8559 13.7975 33.3172 13.9707 33.6694 14.2909C34.0248 14.5807 34.2271 15.0179 34.2181 15.4763V15.75C33.6129 15.4369 32.9378 15.2882 32.2576 15.3145C31.4584 15.2869 30.6726 15.5252 30.0234 15.9921C29.4864 16.4134 29.186 17.0681 29.2168 17.7499C29.2038 18.4236 29.5012 19.066 30.0234 19.4919C30.5673 19.966 31.2706 20.2165 31.9918 20.1932C32.8907 20.2032 33.7279 19.7374 34.1931 18.9682H34.2576V19.9761H35.5326V15.5895C35.5747 14.7751 35.2628 13.9856 34.6773 13.4199ZM30.6444 17.7815C30.638 18.1275 30.8042 18.4541 31.0878 18.6525C31.3813 18.884 31.7457 19.0064 32.1207 18.9985C32.6852 18.9972 33.226 18.7748 33.6286 18.3775C34.03 18.0012 34.2576 17.4762 34.2576 16.9263C33.7511 16.5662 33.1356 16.3923 32.5155 16.4342C32.034 16.4152 31.5591 16.5508 31.1602 16.821C30.8394 17.0356 30.6461 17.3955 30.6444 17.7815ZM38.4023 23.097L42.8629 12.8475H41.4194L39.355 17.9591L37.2339 12.8475H35.7826L38.7089 19.5077L37.0234 23.097H38.4023Z" fill="#5F6368"/>
<path d="M18.4029 14.8396C18.4029 14.4344 18.3713 14.0291 18.3068 13.6292H12.6621V15.9277H15.8871C15.7544 16.6658 15.3269 17.3181 14.7029 17.7342V19.2262H16.6292C17.8137 18.0802 18.458 16.4867 18.4029 14.8396Z" fill="#4285F4"/>
<path d="M12.6695 20.6774C14.1252 20.7173 15.5414 20.2012 16.63 19.234L14.701 17.7341C13.7619 18.3362 12.5975 18.4719 11.5451 18.1017C10.4927 17.7315 9.66962 16.8969 9.31421 15.8395H7.33789V17.3789C8.34655 19.3997 10.4108 20.6768 12.6695 20.6774Z" fill="#34A853"/>
<path d="M9.31449 15.8474C9.06421 15.1071 9.06421 14.305 9.31449 13.5647V12.0253H7.33817C6.48363 13.7103 6.48363 15.7018 7.33817 17.3868L9.31449 15.8474V15.8474Z" fill="#FBBC04"/>
<path d="M12.6695 11.0977C13.5208 11.0822 14.3438 11.4038 14.9589 11.9924L16.6695 10.2912C15.5788 9.2676 14.1322 8.70927 12.6366 8.73472C10.3918 8.74598 8.34379 10.0174 7.33789 12.024L9.31421 13.5647C9.78803 12.1081 11.1378 11.1157 12.6695 11.0977V11.0977Z" fill="#EA4335"/>
<path opacity="0.07" d="M178.053 47.5693H135.947C133.711 47.5693 132 49.2798 132 51.5165V75.1994C132 77.4361 133.842 79.1465 135.947 79.1465H178.053C180.289 79.1465 182 77.4361 182 75.1994V51.5165C182 49.2798 180.158 47.5693 178.053 47.5693Z" fill="black"/>
<path d="M178.053 48.885C179.501 48.885 180.685 50.0692 180.685 51.5164V75.1993C180.685 76.6466 179.501 77.8308 178.053 77.8308H135.948C134.501 77.8308 133.316 76.6466 133.316 75.1993V51.5164C133.316 50.0692 134.501 48.885 135.948 48.885H178.053" fill="white"/>
<ellipse cx="151.736" cy="63.358" rx="9.21053" ry="9.21001" fill="#EB001B"/>
<ellipse cx="162.263" cy="63.358" rx="9.21053" ry="9.21001" fill="#F79E1B"/>
<path d="M160.947 63.358C160.947 60.2003 159.369 57.4373 157 55.8584C154.632 57.5688 153.053 60.3318 153.053 63.358C153.053 66.3841 154.632 69.2787 157 70.8576C159.369 69.2787 160.947 66.5157 160.947 63.358Z" fill="#FF5F00"/>
<path opacity="0.07" d="M46.0526 47.5693H3.94737C1.71053 47.5693 0 49.2798 0 51.5165V75.1994C0 77.4361 1.84211 79.1465 3.94737 79.1465H46.0526C48.2895 79.1465 50 77.4361 50 75.1994V51.5165C50 49.2798 48.1579 47.5693 46.0526 47.5693Z" fill="black"/>
<path d="M46.0532 48.885C47.5006 48.885 48.6848 50.0692 48.6848 51.5164V75.1993C48.6848 76.6466 47.5006 77.8308 46.0532 77.8308H3.94799C2.50062 77.8308 1.31641 76.6466 1.31641 75.1993V51.5164C1.31641 50.0692 2.50062 48.885 3.94799 48.885H46.0532" fill="white"/>
<path d="M31.4482 58.4898C31.7113 57.1741 31.4482 56.2531 30.6587 55.4637C29.8692 54.5427 28.4219 54.1479 26.5798 54.1479H21.185C20.7903 54.1479 20.5271 54.4111 20.3956 54.8058L18.4219 68.0945C18.4219 68.3577 18.5535 68.6208 18.8166 68.6208H22.3692L22.8956 64.1474L25.264 61.2528L31.4482 58.4898Z" fill="#003087"/>
<path d="M31.4471 58.4897L31.1839 58.7529C30.526 62.4369 28.2892 63.7526 25.1313 63.7526H23.6839C23.2892 63.7526 23.026 64.0158 22.8944 64.4105L22.105 69.5418L21.8418 70.8575C21.8418 71.1206 21.9734 71.3838 22.2365 71.3838H24.9997C25.3944 71.3838 25.6576 71.1206 25.6576 70.8575V70.7259L26.1839 67.5682V67.4366C26.1839 67.1735 26.5786 66.9103 26.8418 66.9103H27.2365C29.9997 66.9103 32.105 65.8578 32.6313 62.7C32.8944 61.3843 32.7628 60.3317 32.105 59.5423C31.9734 58.8845 31.7102 58.6213 31.4471 58.4897V58.4897Z" fill="#3086C8"/>
<path d="M30.6577 58.2266C30.5261 58.0951 30.3945 58.0951 30.263 58.0951C30.1314 58.0951 29.9998 58.0951 29.8682 57.9635C29.4735 57.8319 28.9472 57.8319 28.4208 57.8319H24.4735C24.3419 57.8319 24.2103 57.8319 24.2103 57.9635C23.9472 58.0951 23.8156 58.2266 23.8156 58.4898L22.8945 64.2789V64.4105C22.8945 64.0158 23.2893 63.7526 23.684 63.7526H25.3945C28.684 63.7526 30.7893 62.4369 31.4472 58.7529V58.4898C31.3156 58.3582 31.0524 58.2266 30.7893 58.2266H30.6577V58.2266Z" fill="#012169"/>
<path opacity="0.07" d="M112.053 48.4227H69.9474C67.7105 48.4227 66 50.1332 66 52.3699V76.0528C66 78.2895 67.8421 79.9999 69.9474 79.9999H112.053C114.289 79.9999 116 78.2895 116 76.0528V52.3699C116 50.1332 114.158 48.4227 112.053 48.4227Z" fill="black"/>
<path d="M112.053 49.7384C113.501 49.7384 114.685 50.9225 114.685 52.3698V76.0527C114.685 77.5 113.501 78.6842 112.053 78.6842H69.948C68.5006 78.6842 67.3164 77.5 67.3164 76.0527V52.3698C67.3164 50.9225 68.5006 49.7384 69.948 49.7384H112.053" fill="white"/>
<path fill-rule="evenodd" clip-rule="evenodd" d="M72.9729 58.9485C72.8413 58.9485 72.5781 59.0801 72.5781 59.2116L72.7097 59.4748C72.9729 59.4748 74.4202 59.7379 75.2097 60.1326C75.736 60.2642 76.1308 60.6589 76.3939 60.9221L78.4992 69.0795C78.4992 69.3426 78.6308 69.3426 78.7623 69.3426H80.736C80.8292 69.3426 80.9225 69.3592 81.0098 69.3746C81.1691 69.4028 81.3089 69.4276 81.3939 69.3426C81.4752 69.2613 81.5063 69.18 81.5492 69.0676C81.5758 68.9982 81.6068 68.9169 81.6571 68.8164L85.736 59.2116C85.8676 59.0801 85.8676 59.0801 85.8676 58.9485H83.1044C82.9729 58.9485 82.8413 59.0801 82.9729 59.2116L80.2097 65.9218C80.2097 65.9218 80.0781 65.9218 80.0781 66.0534C80.0025 65.9777 79.9703 65.9455 79.9566 65.9069C79.9465 65.8783 79.9465 65.8461 79.9465 65.7902L78.7623 60.0011C78.6308 59.3432 78.1044 58.9485 77.4465 58.9485H72.9729ZM84.815 69.4742C84.9057 68.839 84.9339 68.6419 84.9858 68.4513C85.0091 68.3655 85.0373 68.281 85.0781 68.1585C85.736 65.2639 86.3939 62.2378 86.9202 59.3432C86.9444 59.2949 86.9641 59.2511 86.9818 59.2116L86.9818 59.2116C87.0607 59.0362 87.1001 58.9485 87.315 58.9485H89.6834C89.4202 60.5273 89.1571 61.7115 88.7623 63.1588C88.3676 65.1324 87.9729 67.1059 87.4465 69.0795C87.4465 69.3426 87.315 69.3426 87.0518 69.3426L84.815 69.4742L84.815 69.4742ZM89.9465 66.7112L89.4202 69.0795C89.477 69.1363 89.5093 69.1685 89.5382 69.1658C89.5763 69.1621 89.6086 69.0976 89.6834 68.9479C90.6204 69.2603 91.7223 69.2431 93.0541 69.2223H93.0541H93.0541C93.4054 69.2168 93.7726 69.2111 94.1571 69.2111C95.0186 69.2111 95.3045 68.9808 95.8764 68.5203C95.9158 68.4885 95.9567 68.4556 95.9992 68.4216C97.0518 67.6322 97.4465 66.5796 97.1834 65.3955C97.0518 64.6061 96.3939 63.9482 95.736 63.5535C95.3413 63.2903 94.815 63.0272 94.2887 62.7641L93.6308 62.2378C93.3676 61.9746 93.3676 61.5799 93.6308 61.3168C93.7623 61.1852 93.8939 61.0536 94.1571 61.0536C94.5518 60.9221 94.9465 60.9221 95.3413 60.9221C95.9992 60.9221 96.6571 61.1852 97.315 61.4483C97.5781 60.6589 97.7097 60.0011 97.8413 59.2116H97.7097C96.9202 58.9485 95.2097 58.9485 93.6308 58.9485C92.8151 58.9485 92.3945 59.2645 91.8791 59.6516L91.8791 59.6516C91.7294 59.7641 91.5717 59.8826 91.3939 60.0011C90.4729 60.9221 89.9465 62.7641 91.5255 64.0798C91.9202 64.4745 92.4465 64.7376 92.9729 65.0008C93.1286 65.1046 93.2843 65.1879 93.4319 65.2669C93.6585 65.3882 93.8661 65.4993 94.0255 65.6586C94.5518 66.1849 94.5518 66.8428 93.8939 67.1059C93.6308 67.2375 93.236 67.3691 92.9729 67.3691C92.0518 67.5006 91.1308 67.2375 90.2097 66.8428C90.2097 66.8428 90.0781 66.7112 89.9465 66.7112ZM107.052 69.4742H104.815C104.683 69.4742 104.683 69.4742 104.552 69.3426L104.289 68.1585L104.157 67.8954H100.999C100.868 67.8954 100.736 67.8954 100.736 68.1585L100.341 69.3426C100.341 69.4742 100.21 69.4742 100.21 69.4742H97.4465L97.7097 68.8164L101.525 59.8695C101.525 59.2116 101.92 58.9485 102.578 58.9485H104.552C104.683 58.9485 104.815 58.9485 104.815 59.2116L106.657 67.7638C106.68 67.8538 106.702 67.94 106.724 68.0237L106.724 68.0244C106.83 68.4294 106.92 68.7751 106.92 69.2111C106.996 69.2867 107.028 69.3189 107.042 69.3576C107.052 69.3862 107.052 69.4183 107.052 69.4742ZM103.236 61.7115H102.841C102.731 61.9861 102.627 62.232 102.528 62.4673C102.15 63.3591 101.838 64.097 101.525 65.6586H104.025C103.875 64.9048 103.782 64.3045 103.702 63.7918C103.573 62.9623 103.48 62.362 103.236 61.7115Z" fill="#142688"/>
<path d="M244.053 -0.00695801H201.947C199.711 -0.00695801 198 1.70347 198 3.94019V27.6231C198 29.8598 199.842 31.5702 201.947 31.5702H244.053C246.289 31.5702 248 29.8598 248 27.6231V3.94019C248 1.70347 246.158 -0.00695801 244.053 -0.00695801Z" fill="#FFB3C7"/>
<path d="M244.053 1.30872C245.501 1.30872 246.685 2.49286 246.685 3.94015V27.623C246.685 29.0703 245.501 30.2545 244.053 30.2545H201.948C200.501 30.2545 199.316 29.0703 199.316 27.623V3.94015C199.316 2.49286 200.501 1.30872 201.948 1.30872H244.053" fill="#FFB3C7"/>
<path fill-rule="evenodd" clip-rule="evenodd" d="M203.264 19.5578H205.314V10.5188H203.264V19.5578ZM213.707 19.5578H211.77V19.5551V10.5188H213.707V19.5578ZM221.41 13.3055H219.56H219.558V13.7055C219.036 13.3436 218.404 13.1331 217.724 13.1331C215.924 13.1331 214.464 14.6094 214.464 16.4303C214.464 18.2526 215.924 19.7288 217.724 19.7288C218.38 19.7295 219.02 19.5298 219.56 19.1565V19.5551H221.41V13.3055ZM239.078 13.3055H240.928V19.5551H239.078V19.1565C238.539 19.5296 237.899 19.7292 237.244 19.7288C235.443 19.7288 233.983 18.2526 233.983 16.4303C233.983 14.6094 235.444 13.1331 237.244 13.1331C237.924 13.1331 238.554 13.3436 239.078 13.7055V13.3055ZM237.395 14.8225C238.321 14.8225 239.071 15.5418 239.072 16.431C239.071 17.3188 238.321 18.0394 237.395 18.0394C236.469 18.0394 235.719 17.3184 235.719 16.4303C235.719 15.5422 236.469 14.8225 237.395 14.8225ZM241.731 18.5131C241.731 17.8658 242.251 17.3395 242.891 17.3395C243.536 17.3431 244.056 17.8683 244.053 18.5131C244.053 19.1617 243.533 19.688 242.891 19.688C242.251 19.688 241.731 19.1617 241.731 18.5131ZM224.272 13.3055V14.1199C224.643 13.6318 225.335 13.3068 226.085 13.3068V15.1251H226.064C225.331 15.1251 224.276 15.6527 224.276 16.6382V19.5551H222.377V13.3055H224.272ZM219.553 16.4303C219.553 15.5422 218.803 14.8225 217.877 14.8225C216.952 14.8225 216.201 15.5422 216.201 16.4303C216.201 17.3184 216.951 18.0394 217.877 18.0394C218.803 18.0394 219.553 17.3184 219.553 16.4303ZM230.695 13.1371C229.957 13.1371 229.257 13.37 228.79 14.0094V13.3055H226.948V19.5551H228.812V16.2711C228.812 15.3212 229.443 14.8554 230.201 14.8554C231.014 14.8554 231.481 15.3475 231.481 16.258V19.5565H233.329V15.5817C233.329 14.1265 232.185 13.1371 230.695 13.1371ZM208.339 15.6501C209.691 14.2859 210.445 12.4397 210.435 10.5188H208.429C208.438 12.1645 207.669 13.7177 206.354 14.708L205.56 15.3106L208.64 19.5578H211.173L208.339 15.6501Z" fill="#0A0B09"/>
<path opacity="0.07" d="M178.053 -0.00695801H135.947C133.711 -0.00695801 132 1.70347 132 3.94019V27.6231C132 29.8598 133.842 31.5702 135.947 31.5702H178.053C180.289 31.5702 182 29.8598 182 27.6231V3.94019C182 1.70347 180.158 -0.00695801 178.053 -0.00695801Z" fill="black"/>
<path d="M178.053 1.30872C179.501 1.30872 180.685 2.49286 180.685 3.94015V27.623C180.685 29.0703 179.501 30.2545 178.053 30.2545H135.948C134.501 30.2545 133.316 29.0703 133.316 27.623V3.94015C133.316 2.49286 134.501 1.30872 135.948 1.30872H178.053Z" fill="#5A31F4"/>
<path fill-rule="evenodd" clip-rule="evenodd" d="M138.43 10.2912C139.747 9.07165 141.48 8.40023 143.276 8.41365C147.335 8.41365 149.528 11.5622 149.528 14.5186C149.528 17.8486 147.133 20.2854 143.822 20.3275H143.782C140.993 20.3117 138.815 18.3157 138.815 15.7698C138.816 15.1 138.967 14.4389 139.258 13.8357C139.551 13.2311 139.974 12.6994 140.498 12.2792C140.562 12.2243 140.646 12.198 140.731 12.2065C140.815 12.2149 140.892 12.2573 140.944 12.324L141.799 13.3963C141.904 13.5261 141.885 13.7166 141.756 13.8226C141.165 14.2969 140.821 15.0125 140.818 15.7698C140.818 17.2487 142.099 18.367 143.799 18.367C145.999 18.3368 147.53 16.7606 147.53 14.5238C147.53 12.4634 146.073 10.3793 143.283 10.3793C141.935 10.3637 140.637 10.8899 139.681 11.8398C139.617 11.906 139.526 11.9402 139.434 11.9331C139.342 11.926 139.258 11.8783 139.205 11.8029L138.391 10.699C138.297 10.5737 138.313 10.3969 138.43 10.2912ZM156.422 16.5329C158.585 16.5329 160.133 14.9675 160.133 12.7733C160.133 10.579 158.585 9.01362 156.431 9.01362H152.615C152.592 9.01358 152.57 9.01805 152.549 9.02677C152.485 9.05244 152.443 9.11528 152.444 9.18466V19.5854C152.444 19.6799 152.521 19.7564 152.615 19.7564H154.041C154.087 19.7568 154.13 19.7391 154.162 19.7072C154.194 19.6753 154.212 19.632 154.212 19.5867V16.7027C154.212 16.6805 154.217 16.6586 154.226 16.6382C154.253 16.5751 154.315 16.534 154.383 16.5329H156.422ZM156.315 10.5912C157.489 10.5912 158.355 11.5122 158.355 12.7726C158.355 14.0318 157.489 14.9528 156.315 14.9462H154.383C154.338 14.9464 154.294 14.9284 154.262 14.8962C154.23 14.8643 154.212 14.8206 154.212 14.7751V10.7622C154.212 10.7168 154.23 10.6733 154.263 10.6413C154.295 10.6092 154.338 10.5912 154.383 10.5912H156.315ZM160.557 17.7605C160.527 17.0755 160.848 16.4222 161.408 16.0277C161.965 15.6119 162.835 15.3962 164.112 15.3514L165.472 15.3041V14.9054C165.472 14.1068 164.932 13.7699 164.066 13.7699C163.201 13.7699 162.652 14.0739 162.527 14.5725C162.505 14.6445 162.438 14.693 162.362 14.6909H161.018C160.942 14.6919 160.874 14.6426 160.852 14.5699C160.845 14.5465 160.843 14.5217 160.847 14.4975C161.047 13.316 162.036 12.4187 164.128 12.4187C166.355 12.4187 167.158 13.4489 167.158 15.4133V19.5867C167.158 19.6323 167.14 19.6759 167.107 19.7077C167.074 19.7396 167.03 19.7571 166.985 19.7564H165.63C165.535 19.7564 165.458 19.6799 165.458 19.5854V19.2749C165.459 19.2221 165.427 19.1744 165.378 19.1552C165.33 19.1361 165.274 19.1474 165.237 19.1841C164.83 19.6236 164.174 19.9406 163.123 19.9406C161.577 19.9406 160.557 19.142 160.557 17.7605ZM165.472 16.5329V16.8566C165.472 17.975 164.778 18.6065 163.603 18.6065C162.737 18.6065 162.243 18.2828 162.243 17.6987C162.243 17.054 162.782 16.6724 163.71 16.625L165.472 16.5329ZM168.519 22.9089V21.6998C168.52 21.6484 168.543 21.6001 168.583 21.5682C168.623 21.536 168.675 21.523 168.726 21.5327C168.933 21.5708 169.144 21.5905 169.356 21.5905C170.103 21.6315 170.78 21.1548 170.994 20.438L171.082 20.1604C171.095 20.1229 171.095 20.0821 171.082 20.0446L168.26 12.8463C168.226 12.7644 168.26 12.6702 168.339 12.6292C168.364 12.616 168.392 12.6092 168.42 12.6095H169.789C169.861 12.6097 169.925 12.6541 169.951 12.7213L171.866 17.7987C171.891 17.8685 171.957 17.9151 172.031 17.9144C172.105 17.9143 172.17 17.868 172.195 17.7987L173.86 12.7358C173.883 12.6641 173.95 12.616 174.026 12.6174H175.441C175.529 12.6179 175.603 12.683 175.615 12.77C175.618 12.7981 175.615 12.8265 175.605 12.8529L172.585 20.8472C171.89 22.7063 170.699 23.1799 169.387 23.1799C169.138 23.1868 168.89 23.1575 168.649 23.0931C168.566 23.0726 168.51 22.9944 168.518 22.9089H168.519Z" fill="white"/>
<path opacity="0.07" d="M244.053 47.5693H201.947C199.711 47.5693 198 49.2798 198 51.5165V75.1994C198 77.4361 199.842 79.1465 201.947 79.1465H244.053C246.289 79.1465 248 77.4361 248 75.1994V51.5165C248 49.2798 246.158 47.5693 244.053 47.5693Z" fill="black"/>
<path d="M244.053 48.885C245.501 48.885 246.685 50.0692 246.685 51.5164V75.1993C246.685 76.6466 245.501 77.8308 244.053 77.8308H201.948C200.501 77.8308 199.316 76.6466 199.316 75.1993V51.5164C199.316 50.0692 200.501 48.885 201.948 48.885H244.053" fill="#006FCF"/>
<path fill-rule="evenodd" clip-rule="evenodd" d="M217.708 58.103H212.452L212.101 58.0951H207.587L203.264 68.1998H208.41L209.061 66.6341H210.548L211.198 68.1998H233.448L234.928 66.6341L236.347 68.1998H242.707L238.124 63.1632L242.754 58.0951H236.487L235.02 59.6608L233.602 58.0951H219.957L218.876 60.6489L217.708 58.103ZM230.956 61.1818H227.039V62.2699H230.893V63.9H227.047V65.1131H230.964V66.0854L233.697 63.1317L230.964 60.0529L230.956 61.1818ZM209.804 61.0791L210.823 63.5474H208.794L209.804 61.0791ZM223.851 59.5213H220.904L218.931 64.1737L216.793 59.5213H213.869V65.8499L211.158 59.5213H208.536L205.402 66.7736H207.448L208.098 65.2079H211.514L212.164 66.7736H215.743V61.5962L218.047 66.7815H219.612L221.902 61.612V66.7828H223.82L223.852 59.52L223.851 59.5213ZM239.47 59.5213L236.14 63.1632H236.141L239.447 66.7815H236.979L234.943 64.4947L232.819 66.7815H225.174V59.5213H232.929L234.966 61.7923L237.073 59.5213H239.47Z" fill="white"/>
<path d="M111.522 -0.00695801H70.4777C70.3067 -0.00695801 70.1354 -0.00695801 69.9648 -0.00603985C69.8207 -0.00481564 69.6769 -0.00328537 69.5328 0.000693323C69.2189 0.00926281 68.9024 0.0282381 68.5924 0.0845519C68.2816 0.138506 67.9804 0.239077 67.6989 0.382954C67.1328 0.674647 66.6727 1.14079 66.3848 1.71429C66.2426 1.99967 66.1433 2.30503 66.0903 2.6202C66.0341 2.93452 66.0157 3.25496 66.0072 3.57264C66.0036 3.7185 66.0014 3.86439 66.0006 4.0103C66 4.18291 66 4.35614 66 4.52967V27.887C66 28.0606 66 28.2335 66.0006 28.407C66.0015 28.5527 66.0033 28.6987 66.0072 28.8447C66.0157 29.1618 66.0344 29.4825 66.0903 29.7965C66.1432 30.1117 66.2424 30.417 66.3845 30.7024C66.5275 30.9875 66.7141 31.2478 66.9373 31.4737C67.1602 31.7 67.4172 31.889 67.6986 32.0338C67.9846 32.1816 68.2777 32.2755 68.5927 32.3328C68.9024 32.3888 69.2189 32.4078 69.5328 32.4163C69.6769 32.4197 69.8207 32.4215 69.9648 32.4224C70.1354 32.4237 70.3067 32.4237 70.4777 32.4237H111.522C111.693 32.4237 111.864 32.4237 112.035 32.4224C112.179 32.4218 112.323 32.4197 112.467 32.4163C112.78 32.4078 113.097 32.3888 113.408 32.3328C113.718 32.2788 114.02 32.178 114.301 32.0338C114.867 31.7417 115.327 31.2756 115.615 30.7024C115.761 30.4126 115.853 30.1157 115.909 29.7965C115.966 29.4825 115.984 29.1618 115.992 28.8447C115.996 28.6987 115.998 28.5527 115.999 28.407C116 28.2335 116 28.0606 116 27.887V4.52997C116 4.35644 116 4.18322 115.999 4.00999C115.998 3.86419 115.996 3.71839 115.992 3.57264C115.984 3.25496 115.966 2.93452 115.909 2.6202C115.857 2.30497 115.758 1.99957 115.615 1.71429C115.327 1.14089 114.867 0.674785 114.301 0.382954C114.02 0.239225 113.718 0.138759 113.408 0.084858C113.097 0.0282381 112.78 0.00956887 112.467 0.000999376C112.323 -0.00270776 112.179 -0.00495226 112.035 -0.00573379C111.864 -0.00695801 111.693 -0.00695801 111.522 -0.00695801Z" fill="black"/>
<path d="M111.778 1.34526C111.913 1.34616 112.048 1.34767 112.184 1.35127C112.42 1.35789 112.697 1.37081 112.955 1.4174C113.179 1.45798 113.367 1.5196 113.547 1.61218C113.908 1.79691 114.201 2.09239 114.384 2.45592C114.475 2.63627 114.536 2.82444 114.576 3.05198C114.622 3.30868 114.635 3.58792 114.641 3.82749C114.645 3.96275 114.647 4.09801 114.647 4.23628C114.649 4.40371 114.649 4.57083 114.649 4.73856V27.6785C114.649 27.8463 114.649 28.0134 114.648 28.1841C114.647 28.3194 114.645 28.4546 114.642 28.5899C114.635 28.8292 114.622 29.1084 114.576 29.3681C114.542 29.5747 114.477 29.7749 114.383 29.9618C114.2 30.3254 113.906 30.6209 113.545 30.8055C113.366 30.8975 113.179 30.9591 112.957 30.9994C112.694 31.0466 112.405 31.0595 112.188 31.0655C112.052 31.0685 111.916 31.0706 111.777 31.0712C111.611 31.0724 111.445 31.0724 111.279 31.0724H70.7152C70.551 31.0724 70.3869 31.0724 70.2197 31.0712C70.0854 31.0706 69.9511 31.0688 69.8168 31.0658C69.5947 31.0598 69.3064 31.0466 69.0455 30.9997C68.8392 30.9651 68.6393 30.8992 68.4527 30.8043C68.2736 30.7127 68.1102 30.593 67.9685 30.4496C67.8264 30.3068 67.7077 30.1421 67.6169 29.9618C67.5231 29.7738 67.4581 29.5727 67.4241 29.3651C67.3775 29.1057 67.3644 28.8277 67.3584 28.5902C67.3551 28.4545 67.3531 28.3187 67.3525 28.1829L67.3516 27.784V4.63335L67.3522 4.23508C67.3528 4.0991 67.3548 3.96313 67.3581 3.82719C67.3647 3.58912 67.3775 3.31108 67.4244 3.04957C67.4585 2.84243 67.5235 2.64167 67.6172 2.45412C67.708 2.27437 67.8262 2.11025 67.9694 1.96627C68.1114 1.82304 68.275 1.70334 68.4542 1.61158C68.6404 1.51737 68.8396 1.45191 69.0452 1.4174C69.3034 1.37081 69.5801 1.35789 69.8171 1.35127C69.952 1.34767 70.0872 1.34616 70.2212 1.34526L70.7218 1.34436H111.279L111.778 1.34526Z" fill="white"/>
<path d="M80.1626 11.327C80.6222 10.8223 80.9338 10.1445 80.8517 9.45203C80.1793 9.48136 79.3589 9.84169 78.8836 10.347C78.4571 10.7795 78.0796 11.4855 78.1778 12.1489C78.9327 12.2064 79.6869 11.8176 80.1626 11.327" fill="black"/>
<path d="M80.7923 12.1587C79.6981 12.0974 78.7685 12.7409 78.2462 12.7409C77.7236 12.7409 76.9237 12.1893 76.0584 12.2043C74.9325 12.2196 73.8879 12.8172 73.3163 13.7672C72.1411 15.6672 73.006 18.4866 74.1493 20.0341C74.7042 20.8003 75.3731 21.643 76.2544 21.6127C77.0873 21.582 77.4136 21.107 78.4255 21.107C79.4371 21.107 79.731 21.6127 80.6126 21.5974C81.5265 21.582 82.0981 20.8312 82.6531 20.0651C83.29 19.1917 83.5503 18.349 83.5667 18.303C83.5503 18.2877 81.8042 17.6591 81.7878 15.7745C81.7715 14.1963 83.159 13.4454 83.2244 13.3992C82.4408 12.3119 81.2166 12.1893 80.7919 12.1587" fill="black"/>
<path fill-rule="evenodd" clip-rule="evenodd" d="M87.7468 17.5273V21.8513H86.3711V11.1763H90.0076C90.8876 11.1614 91.7373 11.4979 92.3684 12.1113C92.9662 12.6691 93.3177 13.4417 93.3456 14.2588C93.3735 15.0759 93.0754 15.8706 92.517 16.4679L92.3684 16.6246C91.7333 17.2286 90.8846 17.557 90.0076 17.5354L87.7468 17.5273ZM87.7468 12.4843V16.2516H90.0414C90.5508 16.2679 91.0427 16.0692 91.3995 15.7057C91.9211 15.162 92.0677 14.3594 91.7718 13.6664C91.476 12.9735 90.7949 12.5242 90.0414 12.5248L87.7468 12.4843ZM98.9116 15.1341C98.2468 14.5599 97.3873 14.2653 96.5089 14.3058C95.3441 14.2393 94.228 14.7815 93.5603 15.7382L94.7697 16.5003C95.1565 15.891 95.8305 15.5246 96.5522 15.5314C97.0409 15.5219 97.5148 15.6999 97.8765 16.0287C98.2415 16.3264 98.4493 16.7753 98.44 17.2462V17.5273C97.8184 17.2056 97.1251 17.053 96.4265 17.08C95.6057 17.0516 94.7987 17.2964 94.1319 17.7759C93.5804 18.2086 93.2719 18.881 93.3035 19.5812C93.2901 20.2731 93.5956 20.9328 94.1319 21.3703C94.6906 21.8572 95.4128 22.1145 96.1535 22.0905C97.0767 22.1008 97.9365 21.6224 98.4143 20.8325H98.4806V21.8676H99.79V17.3624C99.8333 16.526 99.513 15.7152 98.9116 15.1341ZM94.7697 19.6136C94.7631 19.969 94.9339 20.3044 95.2251 20.5082C95.5265 20.746 95.9008 20.8717 96.286 20.8636C96.8657 20.8622 97.4211 20.6338 97.8346 20.2258C98.2468 19.8393 98.4806 19.3001 98.4806 18.7353C97.9603 18.3655 97.3282 18.1869 96.6914 18.2299C96.1969 18.2104 95.7092 18.3497 95.2995 18.6272C94.97 18.8476 94.7715 19.2172 94.7697 19.6136ZM102.737 25.0728L107.318 14.5463H105.836L103.716 19.796L101.537 14.5463H100.047L103.052 21.3865L101.321 25.0728H102.737Z" fill="black"/>
</svg>
