<svg width="415" height="24" viewBox="0 0 415 24" fill="none" xmlns="http://www.w3.org/2000/svg">
<path opacity="0.07" d="M35 0H3C1.3 0 0 1.3 0 3V21C0 22.7 1.4 24 3 24H35C36.7 24 38 22.7 38 21V3C38 1.3 36.6 0 35 0Z" fill="black"/>
<path d="M35 1C36.1 1 37 1.9 37 3V21C37 22.1 36.1 23 35 23H3C1.9 23 1 22.1 1 21V3C1 1.9 1.9 1 3 1H35" fill="white"/>
<path fill-rule="evenodd" clip-rule="evenodd" d="M18.0932 11.9762V15.1762H17.0752V7.27623H19.7662C20.4174 7.26521 21.0462 7.51426 21.5132 7.96823C21.9556 8.38103 22.2157 8.95273 22.2363 9.55743C22.257 10.1621 22.0364 10.7502 21.6232 11.1922L21.5132 11.3082C21.0432 11.7552 20.4152 11.9982 19.7662 11.9822L18.0932 11.9762ZM18.0932 8.24423V11.0322H19.7912C20.1682 11.0442 20.5322 10.8972 20.7962 10.6282C21.1822 10.2259 21.2907 9.63187 21.0717 9.11906C20.8528 8.60625 20.3488 8.27373 19.7912 8.27423L18.0932 8.24423ZM26.3552 10.2052C25.8632 9.78023 25.2272 9.56223 24.5772 9.59223C23.7152 9.54303 22.8893 9.94423 22.3952 10.6522L23.2902 11.2162C23.5764 10.7653 24.0752 10.4942 24.6092 10.4992C24.9709 10.4922 25.3215 10.6239 25.5892 10.8672C25.8593 11.0875 26.013 11.4198 26.0062 11.7682V11.9762C25.5462 11.7382 25.0332 11.6252 24.5162 11.6452C23.9088 11.6243 23.3116 11.8054 22.8182 12.1602C22.4101 12.4804 22.1818 12.978 22.2052 13.4962C22.1953 14.0083 22.4213 14.4965 22.8182 14.8202C23.2316 15.1805 23.7661 15.371 24.3142 15.3532C24.9973 15.3609 25.6336 15.0068 25.9872 14.4222H26.0362V15.1882H27.0052V11.8542C27.0372 11.2352 26.8002 10.6352 26.3552 10.2052ZM23.2902 13.5202C23.2853 13.7832 23.4117 14.0314 23.6272 14.1822C23.8502 14.3582 24.1272 14.4512 24.4122 14.4452C24.8412 14.4442 25.2522 14.2752 25.5582 13.9732C25.8632 13.6872 26.0362 13.2882 26.0362 12.8702C25.6512 12.5965 25.1835 12.4644 24.7122 12.4962C24.3463 12.4818 23.9854 12.5848 23.6822 12.7902C23.4384 12.9533 23.2915 13.2269 23.2902 13.5202ZM29.1862 17.5602L32.5762 9.77023H31.4792L29.9102 13.6552L28.2982 9.77023H27.1952L29.4192 14.8322L28.1382 17.5602H29.1862Z" fill="#5F6368"/>
<path d="M13.986 11.2838C13.986 10.9758 13.962 10.6678 13.913 10.3638H9.62305V12.1108H12.074C11.9732 12.6718 11.6483 13.1675 11.174 13.4838V14.6178H12.638C13.5382 13.7468 14.0279 12.5356 13.986 11.2838Z" fill="#4285F4"/>
<path d="M9.62915 15.7209C10.7355 15.7513 11.8118 15.359 12.6391 14.6239L11.1731 13.4839C10.4594 13.9416 9.57449 14.0447 8.77463 13.7633C7.97478 13.482 7.34926 12.8477 7.07915 12.0439H5.57715V13.2139C6.34373 14.7498 7.91258 15.7205 9.62915 15.7209Z" fill="#34A853"/>
<path d="M7.07893 12.05C6.88872 11.4873 6.88872 10.8777 7.07893 10.315V9.14502H5.57693C4.92748 10.4257 4.92748 11.9393 5.57693 13.22L7.07893 12.05V12.05Z" fill="#FBBC04"/>
<path d="M9.62915 8.44019C10.2762 8.42837 10.9016 8.6728 11.3691 9.12019L12.6691 7.82719C11.8402 7.0492 10.7408 6.62485 9.60415 6.64419C7.89815 6.65274 6.34163 7.61904 5.57715 9.14419L7.07915 10.3152C7.43925 9.20812 8.46507 8.45384 9.62915 8.44019V8.44019Z" fill="#EA4335"/>
<path opacity="0.07" d="M358 0H326C324.3 0 323 1.3 323 3V21C323 22.7 324.4 24 326 24H358C359.7 24 361 22.7 361 21V3C361 1.3 359.6 0 358 0Z" fill="black"/>
<path d="M358 1C359.1 1 360 1.9 360 3V21C360 22.1 359.1 23 358 23H326C324.9 23 324 22.1 324 21V3C324 1.9 324.9 1 326 1H358" fill="white"/>
<circle cx="338" cy="12" r="7" fill="#EB001B"/>
<circle cx="346" cy="12" r="7" fill="#F79E1B"/>
<path d="M345 11.9998C345 9.5998 343.8 7.4998 342 6.2998C340.2 7.5998 339 9.6998 339 11.9998C339 14.2998 340.2 16.4998 342 17.6998C343.8 16.4998 345 14.3998 345 11.9998Z" fill="#FF5F00"/>
<path opacity="0.07" d="M250 0H218C216.3 0 215 1.3 215 3V21C215 22.7 216.4 24 218 24H250C251.7 24 253 22.7 253 21V3C253 1.3 251.6 0 250 0Z" fill="black"/>
<path d="M250 1C251.1 1 252 1.9 252 3V21C252 22.1 251.1 23 250 23H218C216.9 23 216 22.1 216 21V3C216 1.9 216.9 1 218 1H250" fill="white"/>
<path d="M238.9 8.3C239.1 7.3 238.9 6.6 238.3 6C237.7 5.3 236.6 5 235.2 5H231.1C230.8 5 230.6 5.2 230.5 5.5L229 15.6C229 15.8 229.1 16 229.3 16H232L232.4 12.6L234.2 10.4L238.9 8.3Z" fill="#003087"/>
<path d="M238.9 8.2998L238.7 8.4998C238.2 11.2998 236.5 12.2998 234.1 12.2998H233C232.7 12.2998 232.5 12.4998 232.4 12.7998L231.8 16.6998L231.6 17.6998C231.6 17.8998 231.7 18.0998 231.9 18.0998H234C234.3 18.0998 234.5 17.8998 234.5 17.6998V17.5998L234.9 15.1998V15.0998C234.9 14.8998 235.2 14.6998 235.4 14.6998H235.7C237.8 14.6998 239.4 13.8998 239.8 11.4998C240 10.4998 239.9 9.6998 239.4 9.0998C239.3 8.5998 239.1 8.3998 238.9 8.2998V8.2998Z" fill="#3086C8"/>
<path d="M238.3 8.0998C238.2 7.9998 238.1 7.9998 238 7.9998C237.9 7.9998 237.8 7.9998 237.7 7.8998C237.4 7.7998 237 7.7998 236.6 7.7998H233.6C233.5 7.7998 233.4 7.7998 233.4 7.8998C233.2 7.9998 233.1 8.0998 233.1 8.2998L232.4 12.6998V12.7998C232.4 12.4998 232.7 12.2998 233 12.2998H234.3C236.8 12.2998 238.4 11.2998 238.9 8.4998V8.2998C238.8 8.1998 238.6 8.0998 238.4 8.0998H238.3V8.0998Z" fill="#012169"/>
<path opacity="0.07" d="M304 0H272C270.3 0 269 1.3 269 3V21C269 22.7 270.4 24 272 24H304C305.7 24 307 22.7 307 21V3C307 1.3 305.6 0 304 0Z" fill="black"/>
<path d="M304 1C305.1 1 306 1.9 306 3V21C306 22.1 305.1 23 304 23H272C270.9 23 270 22.1 270 21V3C270 1.9 270.9 1 272 1H304" fill="white"/>
<path fill-rule="evenodd" clip-rule="evenodd" d="M274.3 8C274.2 8 274 8.1 274 8.2L274.1 8.4C274.3 8.4 275.4 8.6 276 8.9C276.4 9 276.7 9.3 276.9 9.5L278.5 15.7C278.5 15.9 278.6 15.9 278.7 15.9H280.2C280.271 15.9 280.342 15.9125 280.408 15.9243C280.529 15.9458 280.635 15.9646 280.7 15.9C280.762 15.8382 280.785 15.7764 280.818 15.691C280.838 15.6382 280.862 15.5764 280.9 15.5L284 8.2C284.058 8.1425 284.082 8.11806 284.092 8.08866C284.1 8.06693 284.1 8.0425 284.1 8H282C281.9 8 281.8 8.1 281.9 8.2L279.8 13.3C279.8 13.3 279.7 13.3 279.7 13.4C279.6 13.3 279.6 13.3 279.6 13.2L278.7 8.8C278.6 8.3 278.2 8 277.7 8H274.3ZM283.3 16C283.369 15.5172 283.39 15.3674 283.43 15.2225C283.448 15.1573 283.469 15.0931 283.5 15L283.5 15C284 12.8 284.5 10.5 284.9 8.3C284.918 8.2633 284.933 8.22997 284.947 8.2C285.007 8.06667 285.037 8 285.2 8H287C286.8 9.2 286.6 10.1 286.3 11.2C286 12.7 285.7 14.2 285.3 15.7C285.3 15.9 285.2 15.9 285 15.9L283.3 16ZM287.2 13.9L286.8 15.7C286.843 15.7431 286.868 15.7677 286.89 15.7656C286.919 15.7628 286.943 15.7137 287 15.6C287.712 15.8374 288.55 15.8243 289.562 15.8085C289.829 15.8044 290.108 15.8 290.4 15.8C291.055 15.8 291.272 15.625 291.707 15.275L291.8 15.2C292.6 14.6 292.9 13.8 292.7 12.9C292.6 12.3 292.1 11.8 291.6 11.5C291.3 11.3 290.9 11.1 290.5 10.9L290.5 10.9L290 10.5C289.8 10.3 289.8 10 290 9.8C290.1 9.7 290.2 9.6 290.4 9.6C290.7 9.5 291 9.5 291.3 9.5C291.8 9.5 292.3 9.7 292.8 9.9C293 9.3 293.1 8.8 293.2 8.2H293.1C292.5 8 291.2 8 290 8C289.38 8 289.06 8.24016 288.669 8.53439C288.555 8.61988 288.435 8.70994 288.3 8.8C287.6 9.5 287.2 10.9 288.4 11.9C288.7 12.2 289.1 12.4 289.5 12.6C289.618 12.6789 289.737 12.7422 289.849 12.8023C290.021 12.8944 290.179 12.9789 290.3 13.1C290.7 13.5 290.7 14 290.2 14.2C290 14.3 289.7 14.4 289.5 14.4C288.8 14.5 288.1 14.3 287.4 14C287.4 14 287.3 13.9 287.2 13.9ZM300.2 16H298.5C298.458 16 298.433 16 298.411 15.9923C298.382 15.9819 298.358 15.9575 298.3 15.9L298.1 15L298 14.8H295.6C295.5 14.8 295.4 14.8 295.4 15L295.1 15.9C295.1 16 295 16 295 16H292.9L293.1 15.5L296 8.7C296 8.2 296.3 8 296.8 8H298.3C298.4 8 298.5 8 298.5 8.2L299.9 14.7C299.917 14.7684 299.934 14.8338 299.951 14.8974L299.951 14.8978L299.951 14.898L299.951 14.8981C300.031 15.2059 300.1 15.4686 300.1 15.8C300.2 15.9 300.2 15.9 300.2 16ZM297.3 10.1H297C296.917 10.3083 296.838 10.495 296.762 10.6735L296.762 10.6738L296.762 10.6743L296.762 10.6744C296.475 11.3523 296.237 11.9131 296 13.1H297.9C297.785 12.5271 297.715 12.0708 297.654 11.6812L297.654 11.6812C297.556 11.0507 297.485 10.5944 297.3 10.1Z" fill="#142688"/>
<path d="M196 0H164C162.3 0 161 1.3 161 3V21C161 22.7 162.4 24 164 24H196C197.7 24 199 22.7 199 21V3C199 1.3 197.6 0 196 0Z" fill="#FFB3C7"/>
<path d="M196 1C197.1 1 198 1.9 198 3V21C198 22.1 197.1 23 196 23H164C162.9 23 162 22.1 162 21V3C162 1.9 162.9 1 164 1H196" fill="#FFB3C7"/>
<path fill-rule="evenodd" clip-rule="evenodd" d="M165 14.87H166.558V8H165V14.87ZM172.937 14.87H171.465V14.868V8H172.937V14.87ZM178.791 10.118H177.385H177.384V10.422C176.987 10.147 176.507 9.987 175.99 9.987C174.622 9.987 173.512 11.109 173.512 12.493C173.512 13.878 174.622 15 175.99 15C176.488 15.0005 176.975 14.8488 177.385 14.565V14.868H178.791V10.118ZM192.219 10.118H193.625V14.868H192.219V14.565C191.809 14.8486 191.323 15.0003 190.825 15C189.456 15 188.347 13.878 188.347 12.493C188.347 11.109 189.457 9.987 190.825 9.987C191.342 9.987 191.821 10.147 192.219 10.422V10.118ZM190.94 11.271C191.644 11.271 192.214 11.8177 192.214 12.4935C192.214 13.1683 191.644 13.716 190.94 13.716C190.236 13.716 189.666 13.168 189.666 12.493C189.666 11.818 190.236 11.271 190.94 11.271ZM194.235 14.076C194.235 13.584 194.63 13.184 195.117 13.184C195.607 13.1868 196.002 13.586 196 14.076C196 14.569 195.605 14.969 195.117 14.969C194.63 14.969 194.235 14.569 194.235 14.076ZM180.966 10.118V10.737C181.248 10.366 181.774 10.119 182.344 10.119V11.501H182.328C181.771 11.501 180.969 11.902 180.969 12.651V14.868H179.526V10.118H180.966ZM177.38 12.493C177.38 11.818 176.81 11.271 176.106 11.271C175.403 11.271 174.832 11.818 174.832 12.493C174.832 13.168 175.402 13.716 176.106 13.716C176.81 13.716 177.38 13.168 177.38 12.493ZM185.848 9.99C185.287 9.99 184.755 10.167 184.4 10.653V10.118H183V14.868H184.417V12.372C184.417 11.65 184.896 11.296 185.472 11.296C186.09 11.296 186.445 11.67 186.445 12.362V14.869H187.85V11.848C187.85 10.742 186.98 9.99 185.848 9.99ZM168.857 11.9C169.885 10.8631 170.458 9.45996 170.45 8H168.926C168.933 9.25083 168.348 10.4313 167.349 11.184L166.745 11.642L169.086 14.87H171.011L168.857 11.9Z" fill="#0A0B09"/>
<path opacity="0.07" d="M142 0H110C108.3 0 107 1.3 107 3V21C107 22.7 108.4 24 110 24H142C143.7 24 145 22.7 145 21V3C145 1.3 143.6 0 142 0Z" fill="black"/>
<path d="M142 1C143.1 1 144 1.9 144 3V21C144 22.1 143.1 23 142 23H110C108.9 23 108 22.1 108 21V3C108 1.9 108.9 1 110 1H142Z" fill="#5A31F4"/>
<path fill-rule="evenodd" clip-rule="evenodd" d="M111.887 7.82705C112.889 6.90016 114.206 6.38985 115.57 6.40005C118.655 6.40005 120.322 8.79305 120.322 11.0401C120.322 13.5711 118.502 15.4231 115.985 15.4551H115.955C113.835 15.4431 112.18 13.9261 112.18 11.9911C112.181 11.482 112.296 10.9795 112.517 10.5211C112.739 10.0615 113.061 9.65739 113.459 9.33805C113.508 9.2963 113.572 9.27633 113.636 9.28275C113.7 9.28916 113.758 9.32142 113.798 9.37205L114.448 10.1871C114.528 10.2858 114.513 10.4305 114.415 10.5111C113.966 10.8716 113.704 11.4154 113.702 11.9911C113.702 13.1151 114.676 13.9651 115.968 13.9651C117.64 13.9421 118.803 12.7441 118.803 11.0441C118.803 9.47805 117.696 7.89405 115.576 7.89405C114.552 7.8822 113.565 8.2821 112.838 9.00405C112.789 9.05441 112.72 9.08042 112.651 9.075C112.581 9.06959 112.517 9.03333 112.476 8.97605L111.858 8.13705C111.786 8.04175 111.799 7.90737 111.887 7.82705ZM125.561 12.5711C127.205 12.5711 128.382 11.3813 128.382 9.71355C128.382 8.04581 127.205 6.85605 125.568 6.85605H122.668C122.651 6.85603 122.634 6.85943 122.618 6.86605C122.569 6.88556 122.537 6.93332 122.538 6.98605V14.8911C122.538 14.9628 122.596 15.0211 122.668 15.0211H123.752C123.786 15.0213 123.82 15.0078 123.844 14.9836C123.868 14.9594 123.882 14.9264 123.882 14.8921V12.7001C123.882 12.6832 123.886 12.6666 123.892 12.6511C123.913 12.6031 123.96 12.5718 124.012 12.5711H125.561ZM125.48 8.05505C126.372 8.05505 127.03 8.75505 127.03 9.71305C127.03 10.6701 126.372 11.3701 125.48 11.3651H124.012C123.978 11.3652 123.944 11.3515 123.92 11.3271C123.895 11.3028 123.882 11.2696 123.882 11.2351V8.18505C123.882 8.15057 123.896 8.11751 123.92 8.09313C123.945 8.06875 123.978 8.05505 124.012 8.05505H125.48ZM128.704 13.5041C128.681 12.9834 128.925 12.4869 129.351 12.1871C129.774 11.8711 130.435 11.7071 131.406 11.6731L132.439 11.6371V11.3341C132.439 10.7271 132.029 10.4711 131.371 10.4711C130.713 10.4711 130.296 10.7021 130.201 11.0811C130.184 11.1358 130.133 11.1726 130.076 11.1711H129.054C128.996 11.1718 128.945 11.1343 128.928 11.0791C128.923 11.0612 128.921 11.0425 128.924 11.0241C129.076 10.1261 129.828 9.44405 131.418 9.44405C133.11 9.44405 133.721 10.2271 133.721 11.7201V14.8921C133.721 14.9267 133.707 14.9598 133.682 14.984C133.657 15.0083 133.624 15.0216 133.589 15.0211H132.559C132.487 15.0211 132.429 14.9628 132.429 14.8911V14.6551C132.43 14.615 132.405 14.5787 132.368 14.5641C132.331 14.5495 132.289 14.5582 132.261 14.5861C131.951 14.9201 131.453 15.1611 130.654 15.1611C129.479 15.1611 128.704 14.5541 128.704 13.5041ZM132.439 12.5711V12.8171C132.439 13.6671 131.912 14.1471 131.019 14.1471C130.361 14.1471 129.985 13.9011 129.985 13.4571C129.985 12.9671 130.395 12.6771 131.1 12.6411L132.439 12.5711ZM134.755 17.4171V16.4981C134.756 16.4591 134.774 16.4223 134.804 16.3981C134.834 16.3736 134.874 16.3637 134.912 16.3711C135.07 16.4001 135.23 16.4151 135.391 16.4151C135.959 16.4462 136.474 16.0839 136.636 15.5391L136.703 15.3281C136.713 15.2996 136.713 15.2685 136.703 15.2401L134.558 9.76905C134.532 9.70681 134.558 9.6352 134.618 9.60405C134.637 9.59398 134.659 9.58883 134.68 9.58905H135.72C135.775 9.5892 135.824 9.62299 135.843 9.67405L137.299 13.5331C137.318 13.5862 137.368 13.6216 137.424 13.6211C137.48 13.621 137.53 13.5858 137.549 13.5331L138.814 9.68505C138.832 9.63058 138.883 9.59404 138.94 9.59505H140.016C140.083 9.59544 140.139 9.64491 140.148 9.71105C140.151 9.73239 140.148 9.754 140.14 9.77405L137.845 15.8501C137.317 17.2631 136.412 17.6231 135.415 17.6231C135.226 17.6283 135.037 17.606 134.854 17.5571C134.791 17.5415 134.748 17.482 134.754 17.4171H134.755Z" fill="white"/>
<path opacity="0.07" d="M412 0H380C378.3 0 377 1.3 377 3V21C377 22.7 378.4 24 380 24H412C413.7 24 415 22.7 415 21V3C415 1.3 413.6 0 412 0Z" fill="black"/>
<path d="M412 1C413.1 1 414 1.9 414 3V21C414 22.1 413.1 23 412 23H380C378.9 23 378 22.1 378 21V3C378 1.9 378.9 1 380 1H412" fill="#006FCF"/>
<path fill-rule="evenodd" clip-rule="evenodd" d="M391.978 8.006H387.983L387.716 8H384.286L381 15.68H384.911L385.406 14.49H386.536L387.03 15.68H403.94L405.065 14.49L406.143 15.68H410.977L407.494 11.852L411.013 8H406.25L405.135 9.19L404.057 8H393.687L392.865 9.941L391.978 8.006ZM402.046 10.346H399.069V11.173H401.998V12.412H399.075V13.334H402.052V14.073L404.129 11.828L402.052 9.488L402.046 10.346ZM385.971 10.268L386.745 12.144H385.203L385.971 10.268ZM396.646 9.084H394.407L392.907 12.62L391.282 9.084H389.06V13.894L387 9.084H385.007L382.625 14.596H384.18L384.674 13.406H387.27L387.764 14.596H390.484V10.661L392.235 14.602H393.425L395.165 10.673V14.603H396.623L396.647 9.083L396.646 9.084ZM408.517 9.084L405.986 11.852H405.987L408.499 14.602H406.624L405.076 12.864L403.462 14.602H397.652V9.084H403.546L405.094 10.81L406.695 9.084H408.517Z" fill="white"/>
<path d="M87.6865 0H57.3135C57.187 0 57.0602 0 56.9339 0.000679476C56.8273 0.00158544 56.7209 0.0027179 56.6143 0.0056623C56.382 0.0120041 56.1477 0.0260466 55.9184 0.0677211C55.6884 0.107649 55.4655 0.182076 55.2572 0.288551C54.8383 0.504416 54.4978 0.849382 54.2848 1.27379C54.1795 1.48499 54.106 1.71096 54.0668 1.94421C54.0253 2.17681 54.0116 2.41395 54.0054 2.64905C54.0026 2.75699 54.001 2.86496 54.0004 2.97293C54 3.10068 54 3.22887 54 3.35729V20.6427C54 20.7711 54 20.8991 54.0004 21.0275C54.0011 21.1353 54.0025 21.2434 54.0054 21.3514C54.0116 21.586 54.0255 21.8234 54.0668 22.0558C54.106 22.289 54.1794 22.515 54.2846 22.7262C54.3903 22.9371 54.5284 23.1298 54.6936 23.297C54.8586 23.4645 55.0487 23.6044 55.2569 23.7114C55.4686 23.8208 55.6855 23.8904 55.9186 23.9327C56.1477 23.9742 56.382 23.9882 56.6143 23.9946C56.7209 23.9971 56.8273 23.9984 56.9339 23.9991C57.0602 24 57.187 24 57.3135 24H87.6865C87.8128 24 87.9396 24 88.0659 23.9991C88.1723 23.9986 88.2787 23.9971 88.3857 23.9946C88.6175 23.9882 88.8518 23.9742 89.0816 23.9327C89.3117 23.8928 89.5345 23.8182 89.7428 23.7114C90.1615 23.4953 90.5019 23.1504 90.7152 22.7262C90.8232 22.5117 90.8916 22.292 90.9329 22.0558C90.9745 21.8234 90.9879 21.586 90.9942 21.3514C90.9971 21.2434 90.9987 21.1353 90.9991 21.0275C91 20.8991 91 20.7711 91 20.6427V3.35752C91 3.2291 91 3.1009 90.9991 2.97271C90.9987 2.86481 90.997 2.75691 90.9942 2.64905C90.9879 2.41395 90.9745 2.17681 90.9329 1.94421C90.894 1.71092 90.8206 1.48492 90.7152 1.27379C90.5021 0.849457 90.1616 0.504518 89.7428 0.288551C89.5344 0.182186 89.3116 0.107837 89.0816 0.0679476C88.8518 0.0260466 88.6175 0.0122306 88.3857 0.00588879C88.2791 0.00314536 88.1725 0.00148433 88.0659 0.000905968C87.9396 0 87.8128 0 87.6865 0Z" fill="black"/>
<path d="M87.8754 1.00067C87.9752 1.00133 88.0753 1.00245 88.1758 1.00512C88.3509 1.01001 88.5554 1.01958 88.7463 1.05405C88.9119 1.08408 89.0511 1.12969 89.1845 1.1982C89.4515 1.3349 89.6684 1.55358 89.8039 1.8226C89.8714 1.95607 89.9165 2.09532 89.9463 2.26371C89.9803 2.45368 89.9898 2.66033 89.9945 2.83762C89.9973 2.93772 89.9987 3.03782 89.9989 3.14014C90 3.26404 90 3.38772 90 3.51185V20.4884C90 20.6125 90 20.7362 89.9991 20.8625C89.9987 20.9626 89.9973 21.0627 89.9947 21.1628C89.9898 21.3399 89.9803 21.5465 89.9459 21.7387C89.9208 21.8916 89.8728 22.0398 89.8034 22.1781C89.6677 22.4472 89.4505 22.6659 89.1832 22.8025C89.0507 22.8705 88.9119 22.9161 88.7478 22.9459C88.5532 22.9809 88.3399 22.9904 88.1793 22.9949C88.0783 22.9971 87.9778 22.9987 87.8747 22.9991C87.7521 23 87.6289 23 87.506 23H57.4891C57.3676 23 57.2461 23 57.1224 22.9991C57.023 22.9987 56.9236 22.9973 56.8242 22.9951C56.6599 22.9907 56.4465 22.9809 56.2535 22.9462C56.1009 22.9206 55.953 22.8718 55.8148 22.8016C55.6823 22.7338 55.5614 22.6452 55.4566 22.5391C55.3514 22.4334 55.2636 22.3115 55.1964 22.1781C55.127 22.039 55.0788 21.8901 55.0537 21.7365C55.0192 21.5445 55.0095 21.3388 55.0051 21.1631C55.0026 21.0626 55.0011 20.9621 55.0007 20.8616L55 20.5665V3.43399L55.0004 3.13925C55.0009 3.03862 55.0024 2.93799 55.0049 2.83739C55.0097 2.66122 55.0192 2.45546 55.0539 2.26193C55.0791 2.10863 55.1272 1.96006 55.1966 1.82127C55.2637 1.68824 55.3512 1.56679 55.4572 1.46024C55.5623 1.35425 55.6834 1.26566 55.8159 1.19775C55.9537 1.12803 56.1012 1.07959 56.2533 1.05405C56.4443 1.01958 56.6491 1.01001 56.8245 1.00512C56.9243 1.00245 57.0244 1.00133 57.1235 1.00067L57.494 1H87.506L87.8754 1.00067Z" fill="white"/>
<path d="M64.4803 8.38758C64.8205 8.01408 65.0511 7.51247 64.9903 7C64.4927 7.02171 63.8856 7.28837 63.5339 7.66229C63.2183 7.98237 62.939 8.50484 63.0116 8.99582C63.5702 9.03838 64.1284 8.75065 64.4803 8.38758" fill="black"/>
<path d="M64.9469 9.00305C64.1372 8.95769 63.4493 9.43394 63.0628 9.43394C62.6761 9.43394 62.0842 9.02572 61.4439 9.03684C60.6107 9.04818 59.8377 9.49041 59.4148 10.1934C58.5451 11.5995 59.1851 13.686 60.0311 14.8312C60.4418 15.3982 60.9368 16.0219 61.5889 15.9994C62.2053 15.9767 62.4467 15.6252 63.1955 15.6252C63.9441 15.6252 64.1616 15.9994 64.814 15.9881C65.4903 15.9767 65.9133 15.4211 66.3239 14.8541C66.7953 14.2078 66.9879 13.5841 67 13.5501C66.9879 13.5388 65.6958 13.0736 65.6837 11.6789C65.6716 10.5109 66.6983 9.95532 66.7467 9.92108C66.1668 9.11644 65.2609 9.02572 64.9467 9.00305" fill="black"/>
<path fill-rule="evenodd" clip-rule="evenodd" d="M70.0932 12.9762V16.1762H69.0752V8.27623H71.7662C72.4174 8.26521 73.0462 8.51426 73.5132 8.96823C73.9556 9.38103 74.2157 9.95273 74.2363 10.5574C74.257 11.1621 74.0364 11.7502 73.6232 12.1922L73.5132 12.3082C73.0432 12.7552 72.4152 12.9982 71.7662 12.9822L70.0932 12.9762ZM70.0932 9.24423V12.0322H71.7912C72.1682 12.0442 72.5322 11.8972 72.7962 11.6282C73.1822 11.2259 73.2907 10.6319 73.0717 10.1191C72.8528 9.60625 72.3488 9.27373 71.7912 9.27423L70.0932 9.24423ZM78.3552 11.2052C77.8632 10.7802 77.2272 10.5622 76.5772 10.5922C75.7152 10.543 74.8893 10.9442 74.3952 11.6522L75.2902 12.2162C75.5764 11.7653 76.0752 11.4942 76.6092 11.4992C76.9709 11.4922 77.3215 11.6239 77.5892 11.8672C77.8593 12.0875 78.013 12.4198 78.0062 12.7682V12.9762C77.5462 12.7382 77.0332 12.6252 76.5162 12.6452C75.9088 12.6243 75.3116 12.8054 74.8182 13.1602C74.4101 13.4804 74.1818 13.978 74.2052 14.4962C74.1953 15.0083 74.4213 15.4965 74.8182 15.8202C75.2316 16.1805 75.7661 16.371 76.3142 16.3532C76.9973 16.3609 77.6336 16.0068 77.9872 15.4222H78.0362V16.1882H79.0052V12.8542C79.0372 12.2352 78.8002 11.6352 78.3552 11.2052ZM75.2902 14.5202C75.2853 14.7832 75.4117 15.0314 75.6272 15.1822C75.8502 15.3582 76.1272 15.4512 76.4122 15.4452C76.8412 15.4442 77.2522 15.2752 77.5582 14.9732C77.8632 14.6872 78.0362 14.2882 78.0362 13.8702C77.6512 13.5965 77.1835 13.4644 76.7122 13.4962C76.3463 13.4818 75.9854 13.5848 75.6822 13.7902C75.4384 13.9533 75.2915 14.2269 75.2902 14.5202ZM81.1862 18.5602L84.5762 10.7702H83.4792L81.9102 14.6552L80.2982 10.7702H79.1952L81.4192 15.8322L80.1382 18.5602H81.1862Z" fill="black"/>
</svg>
